<svg width="134" height="20" viewBox="0 0 134 20" fill="none" xmlns="http://www.w3.org/2000/svg">
<g clip-path="url(#clip0_277_2801)">
<path d="M10.163 7.84524H8.83172L7.90364 6.1276H2.25546L1.32948 7.84524H0L4.14884 0.131257H5.98992L10.163 7.84524ZM7.37908 5.10976L5.2338 1.05039L4.93308 1.04663L2.78038 5.10976H7.37908ZM19.6688 5.59676C19.6688 7.09576 18.8306 7.84524 17.1536 7.84524H10.8185V0.131257H16.8831C17.6506 0.131257 18.2498 0.306379 18.6811 0.654556C19.1534 1.02846 19.3888 1.58468 19.3888 2.32147C19.3888 3.09633 19.0864 3.59428 18.4815 3.81123C18.8734 3.92981 19.1724 4.15976 19.3738 4.50076C19.5699 4.81092 19.6688 5.17556 19.6688 5.59676ZM18.2126 2.32151C18.2126 1.56105 17.7681 1.18165 16.8792 1.18165H11.9946V3.38116H16.8792C17.3182 3.38116 17.6376 3.30986 17.8389 3.16593C18.0874 3.00176 18.2126 2.71904 18.2126 2.32151ZM18.4849 5.60052C18.4849 5.21192 18.3638 4.90756 18.1172 4.68688C17.8726 4.46616 17.5477 4.3548 17.1424 4.3548H11.9946V6.8058H17.1424C18.0389 6.8058 18.4849 6.40456 18.4849 5.60052ZM30.4013 5.7246C30.4013 6.65812 30.0448 7.27636 29.3314 7.579C28.7658 7.82164 27.582 7.94392 25.7763 7.94392C23.8457 7.94392 22.6061 7.73592 22.0608 7.32192C21.6239 6.99364 21.4053 6.3062 21.4053 5.25952H22.5854C22.5854 5.97612 22.7534 6.43192 23.0896 6.629C23.4071 6.813 24.305 6.9042 25.784 6.9042C27.2777 6.9042 28.1964 6.84248 28.5399 6.71636C28.9974 6.5522 29.2252 6.22048 29.2252 5.72084C29.2252 5.20848 29.0662 4.87808 28.7508 4.73416C28.4876 4.61008 27.5858 4.54636 26.0455 4.54636C24.2079 4.54636 22.9851 4.33288 22.3801 3.90618C21.9022 3.56346 21.663 2.97813 21.663 2.15014C21.663 1.24918 21.9468 0.660044 22.5128 0.384855C23.0504 0.127495 24.2304 0 26.049 0C27.8417 0 29.0048 0.20424 29.5368 0.61276C29.9684 0.948256 30.1849 1.59562 30.1849 2.55659H29.0329C29.0329 1.91299 28.8609 1.49521 28.5175 1.30572C28.1999 1.12887 27.3785 1.03944 26.0528 1.03944C24.9476 1.03944 24.264 1.05965 24.0009 1.09772C23.2258 1.20362 22.8395 1.55556 22.8395 2.15361C22.8395 2.66629 23.0521 3.02546 23.476 3.22969C23.8665 3.41922 24.8633 3.51791 26.4693 3.52509C28.075 3.53228 29.0887 3.63268 29.5126 3.83147C30.1045 4.107 30.4013 4.73792 30.4013 5.7246ZM46.4088 7.84524H45.0772L44.1492 6.1276H38.5011L37.5751 7.84524H36.2456L40.3944 0.131257H42.2356L46.4088 7.84524ZM43.6248 5.10976L41.4796 1.05039L41.1788 1.04663L39.026 5.10976H43.6248ZM56.0824 5.60772C56.0824 6.46856 55.8696 7.08476 55.4456 7.4532C55.11 7.75612 54.57 7.92544 53.8288 7.96548C53.9632 7.96548 53.2408 7.96548 51.6572 7.96548C50.0532 7.96548 49.3308 7.96548 49.486 7.96548C48.75 7.92544 48.2124 7.75788 47.8688 7.46244C47.4448 7.094 47.232 6.47576 47.232 5.60772V0.131257H48.4196V5.60596C48.4196 6.11832 48.6084 6.48124 48.9856 6.691C49.2672 6.8552 49.6952 6.9408 50.2664 6.948C48.47 6.93364 48.9332 6.92608 51.6572 6.92608C54.3816 6.92608 54.8504 6.93364 53.0596 6.948C53.6252 6.9408 54.0528 6.85512 54.3404 6.691C54.7176 6.48124 54.9064 6.11832 54.9064 5.60596V0.131257H56.0824V5.60772ZM65.5808 1.18165H62.0556V7.84524H60.8684V1.18165H57.328V0.131257H65.5808V1.18165ZM76.3316 3.99734C76.3316 5.24856 76.2724 6.06728 76.1512 6.45556C75.9292 7.178 75.2548 7.63924 74.1304 7.83632C73.6864 7.9148 72.798 7.95492 71.464 7.95492C70.1496 7.95492 69.2608 7.9148 68.798 7.83632C67.6668 7.63208 66.9888 7.17592 66.7664 6.4648C66.6452 6.08372 66.5856 5.26124 66.5856 3.99734C66.5856 2.74816 66.6452 1.92567 66.7664 1.53189C66.9888 0.807744 67.6624 0.348175 68.7868 0.149428C69.252 0.0637664 70.144 0.0219326 71.464 0.0219326C72.784 0.0219326 73.6728 0.0620356 74.1304 0.140511C75.2548 0.344752 75.9292 0.80432 76.1512 1.52095C76.2724 1.90922 76.3316 2.73552 76.3316 3.99734ZM75.156 3.99734C75.156 2.57304 75.0008 1.73411 74.6928 1.48427C74.3568 1.20189 73.2792 1.06138 71.464 1.06138C70.1664 1.06138 69.3864 1.08504 69.1252 1.1306C68.58 1.20908 68.2192 1.44248 68.04 1.82902C67.8624 2.21764 67.7732 2.93972 67.7732 3.99734C67.7732 5.03676 67.8664 5.7482 68.0516 6.13652C68.236 6.52512 68.6 6.76024 69.1452 6.84588C69.414 6.89152 70.1876 6.91512 71.464 6.91512C72.7548 6.91512 73.5296 6.89524 73.7836 6.85688C74.3288 6.7712 74.6928 6.53608 74.8776 6.1512C75.0628 5.76636 75.156 5.0498 75.156 3.99734ZM35.4129 4.47508H31.4434V3.43567H35.4129V4.47508Z" fill="white"/>
<path d="M5.18328 16.7821C5.18328 17.2337 5.07272 17.5843 4.85208 17.8359C4.61908 18.1025 4.2738 18.2365 3.81659 18.2365H0.709156V19.9151H0V15.3101H3.84571C4.73732 15.3101 5.18328 15.8009 5.18328 16.7821ZM4.47412 16.7821C4.47412 16.219 4.25132 15.937 3.80673 15.937H0.70912V17.6159H3.81235C4.25376 17.6159 4.47412 17.3383 4.47412 16.7821ZM12.4687 17.6179C12.4687 18.3647 12.4329 18.8537 12.3606 19.0853C12.228 19.5165 11.8255 19.792 11.1546 19.9095C10.8893 19.9565 10.3588 19.9805 9.563 19.9805C8.77808 19.9805 8.24752 19.9565 7.97104 19.9095C7.2956 19.7875 6.89108 19.5155 6.75836 19.0909C6.68608 18.8633 6.65032 18.3725 6.65032 17.6179C6.65032 16.8722 6.68608 16.3814 6.75836 16.146C6.891 15.7139 7.29348 15.4397 7.96444 15.3207C8.24196 15.2697 8.77496 15.2447 9.563 15.2447C10.3508 15.2447 10.8816 15.2687 11.1546 15.3156C11.8255 15.4373 12.228 15.7118 12.3606 16.1395C12.4329 16.3715 12.4687 16.8647 12.4687 17.6179ZM11.7666 17.6179C11.7666 16.7677 11.674 16.267 11.4901 16.1179C11.2894 15.9489 10.6462 15.8653 9.56308 15.8653C8.78832 15.8653 8.32232 15.8793 8.16624 15.9067C7.84092 15.9533 7.62548 16.0929 7.5188 16.3235C7.41288 16.5555 7.35916 16.9866 7.35916 17.6179C7.35916 18.2385 7.41492 18.6631 7.52548 18.8948C7.63568 19.1268 7.85316 19.2673 8.17848 19.3183C8.3392 19.3457 8.8006 19.3598 9.56308 19.3598C10.3333 19.3598 10.7958 19.3478 10.9473 19.3249C11.2729 19.2738 11.4902 19.1333 11.6003 18.9037C11.7108 18.6741 11.7666 18.246 11.7666 17.6178L11.7666 17.6179ZM22.1952 15.3101L19.6082 19.9151H18.7769L17.9755 18.4726L17.166 19.9151H16.3277L13.7708 15.3101H14.4933L16.6923 19.2968L16.7972 19.2944L17.614 17.8225L16.2186 15.3101H16.9421L17.9699 17.1747L18.992 15.3101H19.7474L18.3341 17.8314L19.14 19.2968L19.2404 19.2944L21.4408 15.3101H22.1952ZM27.7051 19.9151H23.1886V15.3101H27.7051V15.937H23.8973V17.2697H27.5668V17.89H23.8973V19.2944H27.7051V19.9151ZM35.1432 19.9151H34.434V18.7852C34.434 18.6162 34.3484 18.4812 34.1754 18.3791C34.0263 18.2931 33.86 18.2495 33.675 18.2495H30.3614V19.9151H29.6521V15.3102H33.888C34.3105 15.3102 34.6301 15.4572 34.8477 15.7519C35.0449 16.011 35.1431 16.3541 35.1431 16.7821C35.1431 17.1629 35.0806 17.4483 34.9547 17.6364C34.8666 17.766 34.7249 17.8715 34.5312 17.9545C34.9389 18.1231 35.1431 18.3997 35.1431 18.7839V19.9151L35.1432 19.9151ZM34.434 16.7831C34.434 16.4815 34.3705 16.2649 34.2445 16.134C34.1175 16.0023 33.9059 15.9369 33.608 15.9369H30.3614V17.6289H33.608C33.9059 17.6289 34.121 17.5582 34.2537 17.4177C34.374 17.2882 34.434 17.0767 34.434 16.7831ZM50.2444 17.6179C50.2444 18.3647 50.2088 18.8537 50.1364 19.0853C50.004 19.5165 49.6012 19.792 48.9304 19.9095C48.6652 19.9565 48.1348 19.9805 47.3388 19.9805C46.554 19.9805 46.0232 19.9565 45.7468 19.9095C45.0716 19.7875 44.6668 19.5155 44.5344 19.0909C44.462 18.8633 44.426 18.3725 44.426 17.6179C44.426 16.8722 44.462 16.3814 44.5344 16.146C44.6668 15.7139 45.0692 15.4397 45.7404 15.3207C46.0176 15.2697 46.5508 15.2447 47.3388 15.2447C48.1264 15.2447 48.6576 15.2687 48.9304 15.3156C49.6012 15.4373 50.0036 15.7118 50.1364 16.1395C50.2088 16.3715 50.2444 16.8647 50.2444 17.6179ZM49.5424 17.6179C49.5424 16.7677 49.4496 16.267 49.266 16.1179C49.0652 15.9489 48.422 15.8653 47.3388 15.8653C46.564 15.8653 46.098 15.8793 45.942 15.9067C45.6168 15.9533 45.4012 16.0929 45.2948 16.3235C45.1888 16.5555 45.1348 16.9866 45.1348 17.6179C45.1348 18.2385 45.1908 18.6631 45.3012 18.8948C45.4116 19.1268 45.6292 19.2673 45.9544 19.3183C46.1152 19.3457 46.5764 19.3598 47.3388 19.3598C48.1092 19.3598 48.5716 19.3478 48.7232 19.3249C49.0488 19.2738 49.266 19.1333 49.376 18.9037C49.4868 18.6741 49.5424 18.246 49.5424 17.6178V17.6179ZM56.0644 15.9369H52.3896V17.3612H55.9316V17.9881H52.3896V19.9151H51.6804V15.3101H56.0644V15.937V15.9369ZM71.058 17.6124C71.058 18.6172 70.9004 19.2793 70.5872 19.5971C70.3792 19.8095 69.9836 19.9151 69.4004 19.9151H65.44V15.3101H69.4004C70.124 15.3101 70.5872 15.5059 70.7924 15.8989C70.97 16.244 71.058 16.8156 71.058 17.6124ZM70.3488 17.6124C70.3488 17.0607 70.3144 16.6861 70.2464 16.4901C70.1184 16.121 69.8344 15.9369 69.3928 15.9369H66.1492V19.2944H69.3928C69.8376 19.2944 70.124 19.1083 70.2532 18.7361C70.3164 18.5432 70.3488 18.17 70.3488 17.6124ZM78.5756 19.9151H77.8664V18.7852C77.8664 18.6162 77.7808 18.4812 77.6076 18.3791C77.4588 18.2931 77.2924 18.2495 77.1072 18.2495H73.7936V19.9151H73.0844V15.3102H77.3204C77.7424 15.3102 78.062 15.4572 78.2796 15.7519C78.4772 16.011 78.5756 16.3541 78.5756 16.7821C78.5756 17.1629 78.5128 17.4483 78.3868 17.6364C78.2984 17.766 78.1572 17.8715 77.9632 17.9545C78.3712 18.1231 78.5756 18.3997 78.5756 18.7839V19.9151V19.9151ZM77.8664 16.7831C77.8664 16.4815 77.8024 16.2649 77.6768 16.134C77.55 16.0023 77.338 15.9369 77.0404 15.9369H73.7936V17.6289H77.0404C77.338 17.6289 77.5532 17.5582 77.6856 17.4177C77.8064 17.2882 77.8664 17.0767 77.8664 16.7831ZM81.3128 19.9151H80.604V15.3101H81.3128V19.9151ZM88.9728 15.3101L86.3912 19.9151H85.5532L82.996 15.3101H83.7184L85.9176 19.2968L86.022 19.2944L88.2172 15.3101H88.9728ZM90.8868 19.9151H90.1784V15.3101H90.8868V19.9151ZM98.6292 19.9151H97.5668L93.5532 15.9099V19.9151H92.8512V15.3036H93.8724L97.92 19.3434V15.3036H98.6292V19.9151ZM106.018 18.1841C106.018 18.7972 105.903 19.2413 105.675 19.5165C105.473 19.7561 105.15 19.9051 104.703 19.9641C104.494 19.9881 104.002 20.0001 103.226 20.0001C102.406 20.0001 101.835 19.9586 101.513 19.876C101.104 19.766 100.82 19.5439 100.666 19.2108C100.511 18.8763 100.434 18.329 100.434 17.5668C100.434 16.8321 100.516 16.3039 100.681 15.9839C100.846 15.6638 101.135 15.4547 101.55 15.3567C101.86 15.2817 102.418 15.2446 103.226 15.2446C104.058 15.2446 104.517 15.2491 104.6 15.2566C105.067 15.2957 105.408 15.4157 105.62 15.6158C105.886 15.8588 106.018 16.257 106.018 16.8111H105.319C105.319 16.356 105.202 16.0808 104.97 15.9828C104.781 15.9043 104.2 15.8652 103.228 15.8652C102.505 15.8652 102.055 15.8827 101.879 15.9183C101.576 15.9729 101.378 16.1189 101.281 16.3539C101.188 16.5739 101.142 16.9951 101.142 17.6189C101.142 18.243 101.188 18.6652 101.275 18.8852C101.372 19.1247 101.573 19.2717 101.879 19.3259C102.055 19.3619 102.505 19.3793 103.228 19.3793C104.08 19.3793 104.444 19.3828 104.324 19.3903C104.666 19.3708 104.909 19.2848 105.054 19.1312C105.23 18.9517 105.318 18.6347 105.318 18.183L103.046 18.184V17.5633H106.018V18.184V18.1841Z" fill="#00A19C"/>
<path d="M114.477 14.513L115.062 13.9098C115.21 13.758 115.487 13.6768 115.755 13.6768H132.752C133.019 13.6768 133.086 13.8738 132.939 14.0253L132.328 14.6555C132.219 14.7686 132.03 14.7899 131.853 14.7899H114.577C114.421 14.7899 114.367 14.6268 114.477 14.513ZM111.394 18.1913L128.376 18.1899C128.647 18.1899 128.709 18.387 128.563 18.5384L127.294 19.8469C127.184 19.9606 126.996 19.9782 126.816 19.9782H109.543C109.375 19.9782 109.332 19.8184 109.442 19.7047L110.685 18.4233C110.832 18.2714 111.122 18.1899 111.394 18.1913V18.1913ZM113.621 15.877H130.619C130.891 15.877 130.952 16.074 130.805 16.2255L129.937 17.121C129.828 17.2344 129.638 17.2512 129.461 17.2512H112.193C112.033 17.2512 111.976 17.0925 112.086 16.9788L112.929 16.1093C113.076 15.9585 113.355 15.877 113.621 15.877Z" fill="#00A19C"/>
</g>
<defs>
<clipPath id="clip0_277_2801">
<rect width="133.2" height="20" fill="white"/>
</clipPath>
</defs>
</svg>
